<?xml version="1.0" encoding="UTF-8"?>
<svg id="Layer_1" data-name="Layer 1" xmlns="http://www.w3.org/2000/svg" viewBox="0 0 1330.38 717.02">
  <defs>
    <style>
      .cls-1 {
        stroke-dasharray: 0 0 18.43 18.43;
      }

      .cls-1, .cls-2, .cls-3, .cls-4 {
        fill: none;
        stroke: #93af56;
        stroke-miterlimit: 10;
        stroke-width: 3px;
      }

      .cls-2 {
        stroke-dasharray: 0 0 19.18 19.18;
      }

      .cls-5 {
        fill: #93af56;
      }

      .cls-4 {
        stroke-dasharray: 0 0 22.29 22.29;
      }
    </style>
  </defs>
  <path class="cls-5" d="m748.87,180.85h2.63c3.76.25,5.64,1.13,5.64,2.63v11.66c-1.26,53.9-1.88,83.73-1.88,89.49v22.56c0,1.5.25,2.76.75,3.76-.5,1-.75,2.26-.75,3.76v1.5c0,46.13-7.52,93.25-22.56,141.38-33.09,70.69-85.23,119.69-156.42,147.02-66.18,26.07-129.48,39.11-189.89,39.11h-1.88l-6.39.75v-.75l-1.88.75h-11.66c-.75,0-1.13-.25-1.13-.75-.51,0-.75.25-.75.75l-6.39-.75h-1.88c-63.42,0-123.96-15.04-181.61-45.12-56.65-35.09-84.98-79.46-84.98-133.11s25.57-103.65,76.71-144.77c42.86-30.08,101.64-45.12,176.35-45.12h7.52c50.89,0,105.03,7.27,162.44,21.81v.75c-24.82,36.6-38.61,55.9-41.36,57.91h-2.63c-45.38-22.31-106.92-33.47-184.62-33.47h-5.26c-55.9,0-102.03,19.05-138.37,57.15-7.27,10.53-10.91,21.31-10.91,32.34,0,32.34,23.18,64.67,69.56,97.01,68.68,34.85,131.1,52.27,187.25,52.27,138.87,0,238.27-30.7,298.18-92.12,23.56-25.57,35.35-52.39,35.35-80.47,0-5.01.38-10.78,1.13-17.3-1.25-41.86-2.88-73.45-4.89-94.75,0-15.04,10.27-46.12,30.83-93.25l3.76-2.63Z"/>
  <path class="cls-5" d="m786.36,426.76l1.5-196.65c-1-4.51-1.52-61.16-1.52-66.18,0-13.54,3.88-29.95,11.66-49.26,9.02-24.31,14.41-40.61,16.17-48.88,1-2.5,2.75-4.26,5.26-5.26,2.5-1,4.26,0,5.26,3.01.5,6.27.25,14.29-.75,24.06-2.01,14.29-3.01,22.19-3.01,23.69-6.27,93.5-6.25,227.36.02,297.8,7.27,32.84,20.05,54.65,38.35,65.43,7.77,3.01,15.79,4.51,24.07,4.51,18.55,0,35.22-6.14,50.01-18.43,3.51-2.5,18.67-21.06,45.5-55.65,18.05-23.56,35.97-35.35,53.77-35.35,6.77,0,14.03,1.5,21.81,4.51,12.28,11.53,19.42,29.83,21.43,54.9h.75c23.56-46.12,54.15-84.6,91.75-115.44v-2.26c-4.27-1.25-35.6-13.66-94-37.23-3.01-1-6.15-1.5-9.4-1.5-8.27,0-16.49,3.89-24.63,11.66-8.15,7.77-14.85,16.8-20.12,27.07-3.01,3.01-6.02,3.76-9.03,2.26-1-.5-2.51-1.88-4.51-4.14,0-5.51,2-12.15,6.02-19.93,3.01-5.51,6.39-11.4,10.15-17.67,17.8-29.33,37.23-42.87,58.28-40.61,13.54,1.5,29.45,5.77,47.75,12.78,30.33,12.54,46,19.05,47,19.55,25.32,8.52,46.63,13.29,63.92,14.29,3.01,2.26,3.51,5.89,1.5,10.9-1.5,2.01-13.79,12.54-36.85,31.59-77.46,64.17-126.47,134.99-147.02,212.45-.51,5.77-4.39,7.4-11.66,4.89-1.01-1-1.5-7.77-1.5-20.3,5.01-15.29,7.52-29.83,7.52-43.62,0-14.54-2.76-26.7-8.27-36.47-6.27-7.52-15.04-11.28-26.32-11.28-16.8,3.01-35.97,21.94-57.53,56.78-28.83,61.17-61.17,91.75-97.01,91.75-21.56,0-37.98-8.77-49.26-26.32-18.55-29.08-27.58-69.56-27.07-121.45Zm235.7,37.59c0,4.77-1.45,9.4-4.32,13.91-2.88,4.51-5.58,8.9-8.08,13.16-7.27,13.78-14.42,27.82-21.43,42.11-7.27,16.29-10.91,31.21-10.91,44.75,0,5.01.5,10.15,1.5,15.42,3.01,4.01,5.76,6.26,8.27,6.77,6.26,0,11.09-4.76,14.48-14.29,3.39-9.53,8.84-13.54,16.36-12.03,8.27,6.26,10.4,21.43,6.39,45.5-7.77,19.55-19.05,31.96-33.84,37.23-6.27,2-14.29.62-24.06-4.14-11.79-8.02-17.67-21.06-17.67-39.11,0-6.27,2.63-22.44,7.9-48.51,11.78-38.61,30.96-73.19,57.53-103.78,3.01-1,5.64,0,7.9,3.01Zm174.48-3.38c0,17.9-14.51,32.42-32.42,32.42s-32.42-14.51-32.42-32.42,14.51-32.42,32.42-32.42,32.42,14.51,32.42,32.42Z"/>
  <g>
    <path class="cls-5" d="m302.82,63.13c0,7.77-1,18.99-3.01,33.65-2.01,14.66-3.01,25.26-3.01,31.77-.51,13.04-2.01,39.99-4.51,80.84-2.26,34.09-3.38,61.67-3.38,82.72,0,27.07,1.63,51.64,4.89,73.7,5.01,36.1,19.8,57.41,44.37,63.92,17.04,0,32.21-5.89,45.5-17.67,8.77-7.27,19.86-20.24,33.28-38.92,13.41-18.67,23.88-31.4,31.4-38.17,4.76-3.51,11.53-7.9,20.3-13.16,29.58-82.47,72.2-147.4,127.84-194.77,5.01-3.01,9.03-4.76,12.03-5.26,1.5,1.5,2.26,5.39,2.26,11.66-3.51,11.79-9.4,29.71-17.67,53.77-44.12,30.33-72.32,62.67-84.6,97.01,0,6.77.25,10.66.75,11.66,3.51,4.51,12.78,8.4,27.82,11.66,11.78,2.51,18.43,8.9,19.93,19.18-2.01,21.06-10.15,43.37-24.44,66.93-8.78,3.51-14.16,5.02-16.17,4.51-25.32-9.78-43.62-14.67-54.9-14.67-13.29,0-23.94,4.51-31.96,13.54-8.03,9.03-17.8,24.69-29.33,47-11.53,22.31-22.44,38.61-32.71,48.88-12.78,12.79-20.68,20.31-23.69,22.56-9.28,6.52-19.31,9.02-30.08,7.52-15.29,0-27.58-7.15-36.85-21.43-11.79-17.54-18.8-53.02-21.06-106.41,3.25-64.17,5.39-128.6,6.39-193.27,0-5.01-.25-14.79-.75-29.33-.51-11.78-.51-21.06,0-27.82.5-10.28,2.26-19.18,5.26-26.7,6.26-11.78,14.79-30.08,25.57-54.9,1-2.5,2.76-3.76,5.26-3.76,2.5-.5,4.26.75,5.26,3.76Z"/>
    <g>
      <path class="cls-5" d="m529.68,158.5l-49.91,64.38c-12.95-14.63-14.09-36.84-1.69-52.84,12.41-16.01,34.21-20.44,51.6-11.54Z"/>
      <line class="cls-3" x1="434.31" y1="138.26" x2="501.9" y2="190.66"/>
      <g>
        <line class="cls-3" x1="458.39" y1="126.47" x2="464" y2="134.75"/>
        <line class="cls-2" x1="474.77" y1="150.63" x2="490.91" y2="174.44"/>
        <line class="cls-3" x1="496.29" y1="182.38" x2="501.9" y2="190.66"/>
      </g>
      <line class="cls-3" x1="474.78" y1="106.13" x2="501.9" y2="190.66"/>
      <line class="cls-3" x1="528.93" y1="108.07" x2="501.81" y2="190.62"/>
      <g>
        <line class="cls-3" x1="501.9" y1="115.38" x2="501.9" y2="125.38"/>
        <line class="cls-1" x1="501.9" y1="143.8" x2="501.9" y2="171.44"/>
        <line class="cls-3" x1="501.9" y1="180.66" x2="501.9" y2="190.66"/>
      </g>
      <g>
        <line class="cls-3" x1="430.66" y1="162.65" x2="440.07" y2="166.02"/>
        <line class="cls-2" x1="458.13" y1="172.49" x2="485.21" y2="182.19"/>
        <line class="cls-3" x1="494.24" y1="185.42" x2="503.66" y2="188.79"/>
      </g>
      <line class="cls-3" x1="415.04" y1="183.6" x2="503.66" y2="188.79"/>
      <line class="cls-3" x1="430.47" y1="235.64" x2="503.66" y2="188.79"/>
      <g>
        <line class="cls-3" x1="430.76" y1="207.56" x2="440.44" y2="205.06"/>
        <line class="cls-1" x1="458.29" y1="200.47" x2="485.05" y2="193.58"/>
        <line class="cls-3" x1="493.97" y1="191.28" x2="503.66" y2="188.79"/>
      </g>
      <g>
        <line class="cls-3" x1="448.02" y1="255.56" x2="454.34" y2="247.82"/>
        <line class="cls-4" x1="468.43" y1="230.55" x2="489.57" y2="204.65"/>
        <line class="cls-3" x1="496.61" y1="196.02" x2="502.94" y2="188.27"/>
      </g>
      <g>
        <line class="cls-3" x1="551.58" y1="122.49" x2="545.65" y2="130.54"/>
        <line class="cls-4" x1="532.44" y1="148.49" x2="512.63" y2="175.42"/>
        <line class="cls-3" x1="506.03" y1="184.39" x2="500.1" y2="192.45"/>
      </g>
    </g>
  </g>
</svg>